<?xml version="1.0" encoding="utf-8"?>
<!-- Generator: Adobe Illustrator 21.1.0, SVG Export Plug-In . SVG Version: 6.00 Build 0)  -->
<svg version="1.1" id="_x34_9c1e53a-cf25-4daa-a2c8-62e4cfd5e6c5"
	 xmlns="http://www.w3.org/2000/svg" xmlns:xlink="http://www.w3.org/1999/xlink" x="0px" y="0px" viewBox="0 0 1080 1080"
	 style="enable-background:new 0 0 1080 1080;" xml:space="preserve">
<style type="text/css">
	.st0{fill:#F4623A;}
	.st1{fill:none;}
</style>
<title>comp</title>
<path class="st0" d="M867.5,197.1H212.5c-59.4,0-107.5,56.1-107.5,125.3v374.1h870V322.5C975,253.2,926.8,197.1,867.5,197.1z
	 M890.5,624.3H189.6V285.4h700.9L890.5,624.3z"/>
<path class="st0" d="M1060.5,732.9H621.6v4c0,23.7-19.3,43-43,43l0,0H501c-23.7,0-43-19.3-43-43l0,0v-4H19.5
	C8.7,732.9,0,741.6,0,752.4c0,0,0,0,0,0l0,0c0,72.1,58.4,130.5,130.5,130.5h819c72.1,0,130.5-58.4,130.5-130.5l0,0
	C1080,741.6,1071.3,732.9,1060.5,732.9L1060.5,732.9z"/>
<path class="st0" d="M453.4,338.4l16.5,16.5c8.6,8.6,8.6,22.5,0,31.1l-93.4,93.4c-8.6,8.6-22.5,8.6-31.1,0l-16.5-16.5
	c-8.6-8.6-8.6-22.5,0-31.1l93.4-93.4C430.8,329.9,444.8,329.9,453.4,338.4z"/>
<path class="st0" d="M469.9,538.5L453.4,555c-8.6,8.6-22.5,8.6-31.1,0l-93.4-93.4c-8.6-8.6-8.6-22.5,0-31.1l16.5-16.5
	c8.6-8.6,22.5-8.6,31.1,0l93.4,93.4C478.5,515.9,478.5,529.9,469.9,538.5z"/>
<path class="st0" d="M626.5,554.7l-16.5-16.5c-8.6-8.6-8.6-22.5,0-31.1l93.4-93.4c8.6-8.6,22.5-8.6,31.1,0l16.5,16.5
	c8.6,8.6,8.6,22.5,0,31.1l-93.4,93.4C649,563.3,635.1,563.3,626.5,554.7z"/>
<path class="st0" d="M609.9,354.7l16.5-16.5c8.6-8.6,22.5-8.6,31.1,0l93.4,93.4c8.6,8.6,8.6,22.5,0,31.1l-16.5,16.5
	c-8.6,8.6-22.5,8.6-31.1,0l-93.4-93.4C601.4,377.2,601.4,363.3,609.9,354.7z"/>
<rect class="st1" width="1080" height="1080"/>
</svg>
