<?xml version="1.0" encoding="utf-8"?>
<!-- Generator: Adobe Illustrator 21.1.0, SVG Export Plug-In . SVG Version: 6.00 Build 0)  -->
<svg version="1.1" id="_x31_9885061-f1fb-418d-ba16-620ac1371f0d"
	 xmlns="http://www.w3.org/2000/svg" xmlns:xlink="http://www.w3.org/1999/xlink" x="0px" y="0px" viewBox="0 0 1080 1080"
	 style="enable-background:new 0 0 1080 1080;" xml:space="preserve">
<style type="text/css">
	.st0{fill:#F4623A;}
	.st1{fill:#F48A71;}
	.st2{fill:none;}
</style>
<title>money</title>
<rect y="258" class="st0" width="1080" height="564"/>
<path class="st1" d="M1009.3,723.4V356.6c-36.1-0.2-65.2-29.5-65.2-65.6H136.7c0,36.2-29.4,65.6-65.6,65.6h-0.4v366.8
	c36.1,0.2,65.2,29.5,65.2,65.6h808.3C944.1,752.9,973.3,723.6,1009.3,723.4z"/>
<path class="st0" d="M535.1,738.7v-49.5c-28.4-0.5-57.8-9.3-75-21.5l11.8-32.8c17.6,11.8,43.1,21.1,70.5,21.1
	c34.8,0,58.3-20.1,58.3-48c0-26.9-19.1-43.6-55.3-58.3c-50-19.6-80.8-42.1-80.8-84.7c0-40.7,28.9-71.5,74-78.9v-49.5h30.3V384
	c29.4,1,49.5,8.8,63.7,17.1l-12.3,32.4c-18.7-11.1-40-16.9-61.7-16.6c-37.7,0-51.9,22.5-51.9,42.1c0,25.5,18.1,38.2,60.7,55.8
	c50.5,20.6,75.9,46,75.9,89.6c0,38.7-26.9,75-77.4,83.3v50.9L535.1,738.7z"/>
<path d="M520.3,725.1v-49.5c-28.4-0.5-57.8-9.3-75-21.5l11.8-32.8c17.6,11.8,43.1,21.1,70.5,21.1c34.8,0,58.3-20.1,58.3-48
	c0-26.9-19.1-43.6-55.3-58.3c-50-19.6-80.8-42.1-80.8-84.7c0-40.7,28.9-71.5,74-78.9V323h30.3v47.5c29.4,1,49.5,8.8,63.7,17.1
	L605.5,420c-18.7-11.1-40-16.9-61.7-16.6c-37.7,0-51.9,22.5-51.9,42.1c0,25.5,18.1,38.2,60.7,55.8c50.5,20.6,75.9,46,75.9,89.6
	c0,38.7-26.9,75-77.4,83.3v50.9L520.3,725.1z"/>
<rect class="st2" width="1080" height="1080"/>
</svg>
