<?xml version="1.0" encoding="utf-8"?>
<!-- Generator: Adobe Illustrator 21.1.0, SVG Export Plug-In . SVG Version: 6.00 Build 0)  -->
<svg version="1.1" id="_x36_6e0ddbc-87a6-4f0b-b6a5-8a9ff53ebe71"
	 xmlns="http://www.w3.org/2000/svg" xmlns:xlink="http://www.w3.org/1999/xlink" x="0px" y="0px" viewBox="0 0 1080 1080"
	 style="enable-background:new 0 0 1080 1080;" xml:space="preserve">
<style type="text/css">
	.st0{fill:#F4623A;}
	.st1{fill:none;}
</style>
<title>web</title>
<path class="st0" d="M746.7,449H333.3c-2,29.6-3,60-3,91s1,61.4,3,91h413.3c2-29.6,3-60,3-91S748.6,478.6,746.7,449z"/>
<path class="st0" d="M540,1078c97.9,0,180.1-172.2,203.2-405H336.8C359.9,905.8,442.1,1078,540,1078z"/>
<path class="st0" d="M540,2c-97.9,0-180.1,172.2-203.2,405h406.4C720.1,174.2,637.9,2,540,2z"/>
<path class="st0" d="M811.8,540c0,30.9-1.1,61.3-3.1,91h263.7c10.2-60.2,10.2-121.8,0-182H808.7C810.7,478.7,811.8,509.1,811.8,540z
	"/>
<path class="st0" d="M672,1063.8c191.9-48.2,343-199,391.5-390.8H805C787.8,841,738.4,982.2,672,1063.8z"/>
<path class="st0" d="M672,16.3C738.4,97.8,787.8,239,805,407h258.4C1014.9,215.3,863.8,64.5,672,16.3z"/>
<path class="st0" d="M408,16.3C216.2,64.5,65.1,215.3,16.5,407H275C292.2,239,341.6,97.8,408,16.3z"/>
<path class="st0" d="M408,1063.8C341.6,982.2,292.2,841,275,673H16.5C65.1,864.7,216.2,1015.5,408,1063.8z"/>
<path class="st0" d="M271.4,449H7.6c-10.2,60.2-10.2,121.8,0,182h263.7c-2-29.7-3.1-60.1-3.1-91S269.3,478.7,271.4,449z"/>
<rect class="st1" width="1080" height="1080"/>
</svg>
